solid cylinder
   facet normal -9.961947e-01 8.715613e-02 0.000000e+00
      outer loop
         vertex -5.000000e-01 0.000000e+00 0.000000e+00
         vertex -4.924039e-01 8.682409e-02 4.000000e+01
         vertex -4.924039e-01 8.682409e-02 0.000000e+00
      endloop
   endfacet
   facet normal -9.659258e-01 2.588190e-01 0.000000e+00
      outer loop
         vertex -4.924039e-01 8.682409e-02 0.000000e+00
         vertex -4.924039e-01 8.682409e-02 4.000000e+01
         vertex -4.698463e-01 1.710101e-01 4.000000e+01
      endloop
   endfacet
   facet normal -9.659258e-01 2.588190e-01 0.000000e+00
      outer loop
         vertex -4.924039e-01 8.682409e-02 0.000000e+00
         vertex -4.698463e-01 1.710101e-01 4.000000e+01
         vertex -4.698463e-01 1.710101e-01 0.000000e+00
      endloop
   endfacet
   facet normal -9.063078e-01 4.226182e-01 0.000000e+00
      outer loop
         vertex -4.698463e-01 1.710101e-01 0.000000e+00
         vertex -4.698463e-01 1.710101e-01 4.000000e+01
         vertex -4.330127e-01 2.500000e-01 4.000000e+01
      endloop
   endfacet
   facet normal -9.063078e-01 4.226182e-01 0.000000e+00
      outer loop
         vertex -4.698463e-01 1.710101e-01 0.000000e+00
         vertex -4.330127e-01 2.500000e-01 4.000000e+01
         vertex -4.330127e-01 2.500000e-01 0.000000e+00
      endloop
   endfacet
   facet normal -8.191520e-01 5.735765e-01 0.000000e+00
      outer loop
         vertex -4.330127e-01 2.500000e-01 0.000000e+00
         vertex -4.330127e-01 2.500000e-01 4.000000e+01
         vertex -3.830222e-01 3.213938e-01 4.000000e+01
      endloop
   endfacet
   facet normal -8.191520e-01 5.735765e-01 0.000000e+00
      outer loop
         vertex -4.330127e-01 2.500000e-01 0.000000e+00
         vertex -3.830222e-01 3.213938e-01 4.000000e+01
         vertex -3.830222e-01 3.213938e-01 0.000000e+00
      endloop
   endfacet
   facet normal -7.071068e-01 7.071068e-01 0.000000e+00
      outer loop
         vertex -3.830222e-01 3.213938e-01 0.000000e+00
         vertex -3.830222e-01 3.213938e-01 4.000000e+01
         vertex -3.213938e-01 3.830222e-01 4.000000e+01
      endloop
   endfacet
   facet normal -7.071068e-01 7.071068e-01 0.000000e+00
      outer loop
         vertex -3.830222e-01 3.213938e-01 0.000000e+00
         vertex -3.213938e-01 3.830222e-01 4.000000e+01
         vertex -3.213938e-01 3.830222e-01 0.000000e+00
      endloop
   endfacet
   facet normal -5.735765e-01 8.191520e-01 0.000000e+00
      outer loop
         vertex -3.213938e-01 3.830222e-01 0.000000e+00
         vertex -3.213938e-01 3.830222e-01 4.000000e+01
         vertex -2.500000e-01 4.330127e-01 4.000000e+01
      endloop
   endfacet
   facet normal -5.735765e-01 8.191520e-01 0.000000e+00
      outer loop
         vertex -3.213938e-01 3.830222e-01 0.000000e+00
         vertex -2.500000e-01 4.330127e-01 4.000000e+01
         vertex -2.500000e-01 4.330127e-01 0.000000e+00
      endloop
   endfacet
   facet normal -4.226182e-01 9.063078e-01 0.000000e+00
      outer loop
         vertex -2.500000e-01 4.330127e-01 0.000000e+00
         vertex -2.500000e-01 4.330127e-01 4.000000e+01
         vertex -1.710101e-01 4.698463e-01 4.000000e+01
      endloop
   endfacet
   facet normal -4.226182e-01 9.063078e-01 0.000000e+00
      outer loop
         vertex -2.500000e-01 4.330127e-01 0.000000e+00
         vertex -1.710101e-01 4.698463e-01 4.000000e+01
         vertex -1.710101e-01 4.698463e-01 0.000000e+00
      endloop
   endfacet
   facet normal -2.588190e-01 9.659258e-01 0.000000e+00
      outer loop
         vertex -1.710101e-01 4.698463e-01 0.000000e+00
         vertex -1.710101e-01 4.698463e-01 4.000000e+01
         vertex -8.682409e-02 4.924039e-01 4.000000e+01
      endloop
   endfacet
   facet normal -2.588190e-01 9.659258e-01 0.000000e+00
      outer loop
         vertex -1.710101e-01 4.698463e-01 0.000000e+00
         vertex -8.682409e-02 4.924039e-01 4.000000e+01
         vertex -8.682409e-02 4.924039e-01 0.000000e+00
      endloop
   endfacet
   facet normal -8.715613e-02 9.961947e-01 0.000000e+00
      outer loop
         vertex -8.682409e-02 4.924039e-01 0.000000e+00
         vertex -8.682409e-02 4.924039e-01 4.000000e+01
         vertex -3.061617e-17 5.000000e-01 4.000000e+01
      endloop
   endfacet
   facet normal -8.715613e-02 9.961947e-01 0.000000e+00
      outer loop
         vertex -8.682409e-02 4.924039e-01 0.000000e+00
         vertex -3.061617e-17 5.000000e-01 4.000000e+01
         vertex -3.061617e-17 5.000000e-01 0.000000e+00
      endloop
   endfacet
   facet normal 8.715613e-02 9.961947e-01 -0.000000e+00
      outer loop
         vertex -3.061617e-17 5.000000e-01 0.000000e+00
         vertex -3.061617e-17 5.000000e-01 4.000000e+01
         vertex 8.682409e-02 4.924039e-01 4.000000e+01
      endloop
   endfacet
   facet normal 8.715613e-02 9.961947e-01 0.000000e+00
      outer loop
         vertex -3.061617e-17 5.000000e-01 0.000000e+00
         vertex 8.682409e-02 4.924039e-01 4.000000e+01
         vertex 8.682409e-02 4.924039e-01 0.000000e+00
      endloop
   endfacet
   facet normal 2.588190e-01 9.659258e-01 -0.000000e+00
      outer loop
         vertex 8.682409e-02 4.924039e-01 0.000000e+00
         vertex 8.682409e-02 4.924039e-01 4.000000e+01
         vertex 1.710101e-01 4.698463e-01 4.000000e+01
      endloop
   endfacet
   facet normal 2.588190e-01 9.659258e-01 0.000000e+00
      outer loop
         vertex 8.682409e-02 4.924039e-01 0.000000e+00
         vertex 1.710101e-01 4.698463e-01 4.000000e+01
         vertex 1.710101e-01 4.698463e-01 0.000000e+00
      endloop
   endfacet
   facet normal 4.226182e-01 9.063078e-01 -0.000000e+00
      outer loop
         vertex 1.710101e-01 4.698463e-01 0.000000e+00
         vertex 1.710101e-01 4.698463e-01 4.000000e+01
         vertex 2.500000e-01 4.330127e-01 4.000000e+01
      endloop
   endfacet
   facet normal 4.226182e-01 9.063078e-01 0.000000e+00
      outer loop
         vertex 1.710101e-01 4.698463e-01 0.000000e+00
         vertex 2.500000e-01 4.330127e-01 4.000000e+01
         vertex 2.500000e-01 4.330127e-01 0.000000e+00
      endloop
   endfacet
   facet normal 5.735765e-01 8.191520e-01 -0.000000e+00
      outer loop
         vertex 2.500000e-01 4.330127e-01 0.000000e+00
         vertex 2.500000e-01 4.330127e-01 4.000000e+01
         vertex 3.213938e-01 3.830222e-01 4.000000e+01
      endloop
   endfacet
   facet normal 5.735765e-01 8.191520e-01 0.000000e+00
      outer loop
         vertex 2.500000e-01 4.330127e-01 0.000000e+00
         vertex 3.213938e-01 3.830222e-01 4.000000e+01
         vertex 3.213938e-01 3.830222e-01 0.000000e+00
      endloop
   endfacet
   facet normal 7.071068e-01 7.071068e-01 -0.000000e+00
      outer loop
         vertex 3.213938e-01 3.830222e-01 0.000000e+00
         vertex 3.213938e-01 3.830222e-01 4.000000e+01
         vertex 3.830222e-01 3.213938e-01 4.000000e+01
      endloop
   endfacet
   facet normal 7.071068e-01 7.071068e-01 0.000000e+00
      outer loop
         vertex 3.213938e-01 3.830222e-01 0.000000e+00
         vertex 3.830222e-01 3.213938e-01 4.000000e+01
         vertex 3.830222e-01 3.213938e-01 0.000000e+00
      endloop
   endfacet
   facet normal 8.191520e-01 5.735765e-01 -0.000000e+00
      outer loop
         vertex 3.830222e-01 3.213938e-01 0.000000e+00
         vertex 3.830222e-01 3.213938e-01 4.000000e+01
         vertex 4.330127e-01 2.500000e-01 4.000000e+01
      endloop
   endfacet
   facet normal 8.191520e-01 5.735765e-01 0.000000e+00
      outer loop
         vertex 3.830222e-01 3.213938e-01 0.000000e+00
         vertex 4.330127e-01 2.500000e-01 4.000000e+01
         vertex 4.330127e-01 2.500000e-01 0.000000e+00
      endloop
   endfacet
   facet normal 9.063078e-01 4.226182e-01 -0.000000e+00
      outer loop
         vertex 4.330127e-01 2.500000e-01 0.000000e+00
         vertex 4.330127e-01 2.500000e-01 4.000000e+01
         vertex 4.698463e-01 1.710101e-01 4.000000e+01
      endloop
   endfacet
   facet normal 9.063078e-01 4.226182e-01 0.000000e+00
      outer loop
         vertex 4.330127e-01 2.500000e-01 0.000000e+00
         vertex 4.698463e-01 1.710101e-01 4.000000e+01
         vertex 4.698463e-01 1.710101e-01 0.000000e+00
      endloop
   endfacet
   facet normal 9.659258e-01 2.588190e-01 -0.000000e+00
      outer loop
         vertex 4.698463e-01 1.710101e-01 0.000000e+00
         vertex 4.698463e-01 1.710101e-01 4.000000e+01
         vertex 4.924039e-01 8.682409e-02 4.000000e+01
      endloop
   endfacet
   facet normal 9.659258e-01 2.588190e-01 0.000000e+00
      outer loop
         vertex 4.698463e-01 1.710101e-01 0.000000e+00
         vertex 4.924039e-01 8.682409e-02 4.000000e+01
         vertex 4.924039e-01 8.682409e-02 0.000000e+00
      endloop
   endfacet
   facet normal 9.961947e-01 8.715613e-02 -0.000000e+00
      outer loop
         vertex 4.924039e-01 8.682409e-02 0.000000e+00
         vertex 4.924039e-01 8.682409e-02 4.000000e+01
         vertex 5.000000e-01 6.123234e-17 4.000000e+01
      endloop
   endfacet
   facet normal 9.961947e-01 8.715613e-02 0.000000e+00
      outer loop
         vertex 4.924039e-01 8.682409e-02 0.000000e+00
         vertex 5.000000e-01 6.123234e-17 4.000000e+01
         vertex 5.000000e-01 6.123234e-17 0.000000e+00
      endloop
   endfacet
   facet normal 9.961947e-01 -8.715613e-02 0.000000e+00
      outer loop
         vertex 5.000000e-01 6.123234e-17 0.000000e+00
         vertex 5.000000e-01 6.123234e-17 4.000000e+01
         vertex 4.924039e-01 -8.682409e-02 4.000000e+01
      endloop
   endfacet
   facet normal 9.961947e-01 -8.715613e-02 0.000000e+00
      outer loop
         vertex 5.000000e-01 6.123234e-17 0.000000e+00
         vertex 4.924039e-01 -8.682409e-02 4.000000e+01
         vertex 4.924039e-01 -8.682409e-02 0.000000e+00
      endloop
   endfacet
   facet normal 9.659258e-01 -2.588190e-01 0.000000e+00
      outer loop
         vertex 4.924039e-01 -8.682409e-02 0.000000e+00
         vertex 4.924039e-01 -8.682409e-02 4.000000e+01
         vertex 4.698463e-01 -1.710101e-01 4.000000e+01
      endloop
   endfacet
   facet normal 9.659258e-01 -2.588190e-01 0.000000e+00
      outer loop
         vertex 4.924039e-01 -8.682409e-02 0.000000e+00
         vertex 4.698463e-01 -1.710101e-01 4.000000e+01
         vertex 4.698463e-01 -1.710101e-01 0.000000e+00
      endloop
   endfacet
   facet normal 9.063078e-01 -4.226182e-01 0.000000e+00
      outer loop
         vertex 4.698463e-01 -1.710101e-01 0.000000e+00
         vertex 4.698463e-01 -1.710101e-01 4.000000e+01
         vertex 4.330127e-01 -2.500000e-01 4.000000e+01
      endloop
   endfacet
   facet normal 9.063078e-01 -4.226182e-01 0.000000e+00
      outer loop
         vertex 4.698463e-01 -1.710101e-01 0.000000e+00
         vertex 4.330127e-01 -2.500000e-01 4.000000e+01
         vertex 4.330127e-01 -2.500000e-01 0.000000e+00
      endloop
   endfacet
   facet normal 8.191520e-01 -5.735765e-01 0.000000e+00
      outer loop
         vertex 4.330127e-01 -2.500000e-01 0.000000e+00
         vertex 4.330127e-01 -2.500000e-01 4.000000e+01
         vertex 3.830222e-01 -3.213938e-01 4.000000e+01
      endloop
   endfacet
   facet normal 8.191520e-01 -5.735765e-01 0.000000e+00
      outer loop
         vertex 4.330127e-01 -2.500000e-01 0.000000e+00
         vertex 3.830222e-01 -3.213938e-01 4.000000e+01
         vertex 3.830222e-01 -3.213938e-01 0.000000e+00
      endloop
   endfacet
   facet normal 7.071068e-01 -7.071068e-01 0.000000e+00
      outer loop
         vertex 3.830222e-01 -3.213938e-01 0.000000e+00
         vertex 3.830222e-01 -3.213938e-01 4.000000e+01
         vertex 3.213938e-01 -3.830222e-01 4.000000e+01
      endloop
   endfacet
   facet normal 7.071068e-01 -7.071068e-01 0.000000e+00
      outer loop
         vertex 3.830222e-01 -3.213938e-01 0.000000e+00
         vertex 3.213938e-01 -3.830222e-01 4.000000e+01
         vertex 3.213938e-01 -3.830222e-01 0.000000e+00
      endloop
   endfacet
   facet normal 5.735765e-01 -8.191520e-01 0.000000e+00
      outer loop
         vertex 3.213938e-01 -3.830222e-01 0.000000e+00
         vertex 3.213938e-01 -3.830222e-01 4.000000e+01
         vertex 2.500000e-01 -4.330127e-01 4.000000e+01
      endloop
   endfacet
   facet normal 5.735765e-01 -8.191520e-01 0.000000e+00
      outer loop
         vertex 3.213938e-01 -3.830222e-01 0.000000e+00
         vertex 2.500000e-01 -4.330127e-01 4.000000e+01
         vertex 2.500000e-01 -4.330127e-01 0.000000e+00
      endloop
   endfacet
   facet normal 4.226182e-01 -9.063078e-01 0.000000e+00
      outer loop
         vertex 2.500000e-01 -4.330127e-01 0.000000e+00
         vertex 2.500000e-01 -4.330127e-01 4.000000e+01
         vertex 1.710101e-01 -4.698463e-01 4.000000e+01
      endloop
   endfacet
   facet normal 4.226182e-01 -9.063078e-01 0.000000e+00
      outer loop
         vertex 2.500000e-01 -4.330127e-01 0.000000e+00
         vertex 1.710101e-01 -4.698463e-01 4.000000e+01
         vertex 1.710101e-01 -4.698463e-01 0.000000e+00
      endloop
   endfacet
   facet normal 2.588190e-01 -9.659258e-01 0.000000e+00
      outer loop
         vertex 1.710101e-01 -4.698463e-01 0.000000e+00
         vertex 1.710101e-01 -4.698463e-01 4.000000e+01
         vertex 8.682409e-02 -4.924039e-01 4.000000e+01
      endloop
   endfacet
   facet normal 2.588190e-01 -9.659258e-01 0.000000e+00
      outer loop
         vertex 1.710101e-01 -4.698463e-01 0.000000e+00
         vertex 8.682409e-02 -4.924039e-01 4.000000e+01
         vertex 8.682409e-02 -4.924039e-01 0.000000e+00
      endloop
   endfacet
   facet normal 8.715613e-02 -9.961947e-01 0.000000e+00
      outer loop
         vertex 8.682409e-02 -4.924039e-01 0.000000e+00
         vertex 8.682409e-02 -4.924039e-01 4.000000e+01
         vertex 9.184851e-17 -5.000000e-01 4.000000e+01
      endloop
   endfacet
   facet normal 8.715613e-02 -9.961947e-01 0.000000e+00
      outer loop
         vertex 8.682409e-02 -4.924039e-01 0.000000e+00
         vertex 9.184851e-17 -5.000000e-01 4.000000e+01
         vertex 9.184851e-17 -5.000000e-01 0.000000e+00
      endloop
   endfacet
   facet normal -8.715613e-02 -9.961947e-01 0.000000e+00
      outer loop
         vertex 9.184851e-17 -5.000000e-01 0.000000e+00
         vertex 9.184851e-17 -5.000000e-01 4.000000e+01
         vertex -8.682409e-02 -4.924039e-01 4.000000e+01
      endloop
   endfacet
   facet normal -8.715613e-02 -9.961947e-01 0.000000e+00
      outer loop
         vertex 9.184851e-17 -5.000000e-01 0.000000e+00
         vertex -8.682409e-02 -4.924039e-01 4.000000e+01
         vertex -8.682409e-02 -4.924039e-01 0.000000e+00
      endloop
   endfacet
   facet normal -2.588190e-01 -9.659258e-01 0.000000e+00
      outer loop
         vertex -8.682409e-02 -4.924039e-01 0.000000e+00
         vertex -8.682409e-02 -4.924039e-01 4.000000e+01
         vertex -1.710101e-01 -4.698463e-01 4.000000e+01
      endloop
   endfacet
   facet normal -2.588190e-01 -9.659258e-01 0.000000e+00
      outer loop
         vertex -8.682409e-02 -4.924039e-01 0.000000e+00
         vertex -1.710101e-01 -4.698463e-01 4.000000e+01
         vertex -1.710101e-01 -4.698463e-01 0.000000e+00
      endloop
   endfacet
   facet normal -4.226182e-01 -9.063078e-01 0.000000e+00
      outer loop
         vertex -1.710101e-01 -4.698463e-01 0.000000e+00
         vertex -1.710101e-01 -4.698463e-01 4.000000e+01
         vertex -2.500000e-01 -4.330127e-01 4.000000e+01
      endloop
   endfacet
   facet normal -4.226182e-01 -9.063078e-01 0.000000e+00
      outer loop
         vertex -1.710101e-01 -4.698463e-01 0.000000e+00
         vertex -2.500000e-01 -4.330127e-01 4.000000e+01
         vertex -2.500000e-01 -4.330127e-01 0.000000e+00
      endloop
   endfacet
   facet normal -5.735765e-01 -8.191520e-01 0.000000e+00
      outer loop
         vertex -2.500000e-01 -4.330127e-01 0.000000e+00
         vertex -2.500000e-01 -4.330127e-01 4.000000e+01
         vertex -3.213938e-01 -3.830222e-01 4.000000e+01
      endloop
   endfacet
   facet normal -5.735765e-01 -8.191520e-01 0.000000e+00
      outer loop
         vertex -2.500000e-01 -4.330127e-01 0.000000e+00
         vertex -3.213938e-01 -3.830222e-01 4.000000e+01
         vertex -3.213938e-01 -3.830222e-01 0.000000e+00
      endloop
   endfacet
   facet normal -7.071068e-01 -7.071068e-01 0.000000e+00
      outer loop
         vertex -3.213938e-01 -3.830222e-01 0.000000e+00
         vertex -3.213938e-01 -3.830222e-01 4.000000e+01
         vertex -3.830222e-01 -3.213938e-01 4.000000e+01
      endloop
   endfacet
   facet normal -7.071068e-01 -7.071068e-01 0.000000e+00
      outer loop
         vertex -3.213938e-01 -3.830222e-01 0.000000e+00
         vertex -3.830222e-01 -3.213938e-01 4.000000e+01
         vertex -3.830222e-01 -3.213938e-01 0.000000e+00
      endloop
   endfacet
   facet normal -8.191520e-01 -5.735765e-01 0.000000e+00
      outer loop
         vertex -3.830222e-01 -3.213938e-01 0.000000e+00
         vertex -3.830222e-01 -3.213938e-01 4.000000e+01
         vertex -4.330127e-01 -2.500000e-01 4.000000e+01
      endloop
   endfacet
   facet normal -8.191520e-01 -5.735765e-01 0.000000e+00
      outer loop
         vertex -3.830222e-01 -3.213938e-01 0.000000e+00
         vertex -4.330127e-01 -2.500000e-01 4.000000e+01
         vertex -4.330127e-01 -2.500000e-01 0.000000e+00
      endloop
   endfacet
   facet normal -9.063078e-01 -4.226182e-01 0.000000e+00
      outer loop
         vertex -4.330127e-01 -2.500000e-01 0.000000e+00
         vertex -4.330127e-01 -2.500000e-01 4.000000e+01
         vertex -4.698463e-01 -1.710101e-01 4.000000e+01
      endloop
   endfacet
   facet normal -9.063078e-01 -4.226182e-01 0.000000e+00
      outer loop
         vertex -4.330127e-01 -2.500000e-01 0.000000e+00
         vertex -4.698463e-01 -1.710101e-01 4.000000e+01
         vertex -4.698463e-01 -1.710101e-01 0.000000e+00
      endloop
   endfacet
   facet normal -9.659258e-01 -2.588190e-01 0.000000e+00
      outer loop
         vertex -4.698463e-01 -1.710101e-01 0.000000e+00
         vertex -4.698463e-01 -1.710101e-01 4.000000e+01
         vertex -4.924039e-01 -8.682409e-02 4.000000e+01
      endloop
   endfacet
   facet normal -9.659258e-01 -2.588190e-01 0.000000e+00
      outer loop
         vertex -4.698463e-01 -1.710101e-01 0.000000e+00
         vertex -4.924039e-01 -8.682409e-02 4.000000e+01
         vertex -4.924039e-01 -8.682409e-02 0.000000e+00
      endloop
   endfacet
   facet normal -9.961947e-01 -8.715613e-02 0.000000e+00
      outer loop
         vertex -4.924039e-01 -8.682409e-02 0.000000e+00
         vertex -4.924039e-01 -8.682409e-02 4.000000e+01
         vertex -5.000000e-01 0.000000e+00 4.000000e+01
      endloop
   endfacet
   facet normal -9.961947e-01 -8.715613e-02 0.000000e+00
      outer loop
         vertex -4.924039e-01 -8.682409e-02 0.000000e+00
         vertex -5.000000e-01 0.000000e+00 4.000000e+01
         vertex -5.000000e-01 0.000000e+00 0.000000e+00
      endloop
   endfacet
   facet normal -9.961947e-01 8.715613e-02 0.000000e+00
      outer loop
         vertex -5.000000e-01 0.000000e+00 0.000000e+00
         vertex -5.000000e-01 0.000000e+00 4.000000e+01
         vertex -4.924039e-01 8.682409e-02 4.000000e+01
      endloop
   endfacet
   facet normal 0.000000e+00 -0.000000e+00 1.000000e+00
      outer loop
         vertex 4.698463e-01 -1.710101e-01 4.000000e+01
         vertex 4.924039e-01 -8.682409e-02 4.000000e+01
         vertex 0.000000e+00 0.000000e+00 4.000000e+01
      endloop
   endfacet
   facet normal -0.000000e+00 0.000000e+00 1.000000e+00
      outer loop
         vertex 0.000000e+00 0.000000e+00 4.000000e+01
         vertex 4.924039e-01 -8.682409e-02 4.000000e+01
         vertex 5.000000e-01 6.123234e-17 4.000000e+01
      endloop
   endfacet
   facet normal 0.000000e+00 0.000000e+00 1.000000e+00
      outer loop
         vertex 0.000000e+00 0.000000e+00 4.000000e+01
         vertex 5.000000e-01 6.123234e-17 4.000000e+01
         vertex 4.924039e-01 8.682409e-02 4.000000e+01
      endloop
   endfacet
   facet normal 0.000000e+00 -0.000000e+00 1.000000e+00
      outer loop
         vertex 3.213938e-01 -3.830222e-01 4.000000e+01
         vertex 3.830222e-01 -3.213938e-01 4.000000e+01
         vertex 0.000000e+00 0.000000e+00 4.000000e+01
      endloop
   endfacet
   facet normal 0.000000e+00 0.000000e+00 1.000000e+00
      outer loop
         vertex 0.000000e+00 0.000000e+00 4.000000e+01
         vertex 3.830222e-01 -3.213938e-01 4.000000e+01
         vertex 4.330127e-01 -2.500000e-01 4.000000e+01
      endloop
   endfacet
   facet normal 0.000000e+00 0.000000e+00 1.000000e+00
      outer loop
         vertex 0.000000e+00 0.000000e+00 4.000000e+01
         vertex 4.330127e-01 -2.500000e-01 4.000000e+01
         vertex 4.698463e-01 -1.710101e-01 4.000000e+01
      endloop
   endfacet
   facet normal 0.000000e+00 -0.000000e+00 1.000000e+00
      outer loop
         vertex 8.682409e-02 -4.924039e-01 4.000000e+01
         vertex 1.710101e-01 -4.698463e-01 4.000000e+01
         vertex 0.000000e+00 0.000000e+00 4.000000e+01
      endloop
   endfacet
   facet normal 0.000000e+00 0.000000e+00 1.000000e+00
      outer loop
         vertex 0.000000e+00 0.000000e+00 4.000000e+01
         vertex 1.710101e-01 -4.698463e-01 4.000000e+01
         vertex 2.500000e-01 -4.330127e-01 4.000000e+01
      endloop
   endfacet
   facet normal 0.000000e+00 0.000000e+00 1.000000e+00
      outer loop
         vertex 0.000000e+00 0.000000e+00 4.000000e+01
         vertex 2.500000e-01 -4.330127e-01 4.000000e+01
         vertex 3.213938e-01 -3.830222e-01 4.000000e+01
      endloop
   endfacet
   facet normal -0.000000e+00 0.000000e+00 1.000000e+00
      outer loop
         vertex -1.710101e-01 -4.698463e-01 4.000000e+01
         vertex -8.682409e-02 -4.924039e-01 4.000000e+01
         vertex 0.000000e+00 0.000000e+00 4.000000e+01
      endloop
   endfacet
   facet normal 0.000000e+00 0.000000e+00 1.000000e+00
      outer loop
         vertex 0.000000e+00 0.000000e+00 4.000000e+01
         vertex -8.682409e-02 -4.924039e-01 4.000000e+01
         vertex 9.184851e-17 -5.000000e-01 4.000000e+01
      endloop
   endfacet
   facet normal 0.000000e+00 0.000000e+00 1.000000e+00
      outer loop
         vertex 0.000000e+00 0.000000e+00 4.000000e+01
         vertex 9.184851e-17 -5.000000e-01 4.000000e+01
         vertex 8.682409e-02 -4.924039e-01 4.000000e+01
      endloop
   endfacet
   facet normal -0.000000e+00 0.000000e+00 1.000000e+00
      outer loop
         vertex -3.830222e-01 -3.213938e-01 4.000000e+01
         vertex -3.213938e-01 -3.830222e-01 4.000000e+01
         vertex 0.000000e+00 0.000000e+00 4.000000e+01
      endloop
   endfacet
   facet normal 0.000000e+00 0.000000e+00 1.000000e+00
      outer loop
         vertex 0.000000e+00 0.000000e+00 4.000000e+01
         vertex -3.213938e-01 -3.830222e-01 4.000000e+01
         vertex -2.500000e-01 -4.330127e-01 4.000000e+01
      endloop
   endfacet
   facet normal 0.000000e+00 0.000000e+00 1.000000e+00
      outer loop
         vertex 0.000000e+00 0.000000e+00 4.000000e+01
         vertex -2.500000e-01 -4.330127e-01 4.000000e+01
         vertex -1.710101e-01 -4.698463e-01 4.000000e+01
      endloop
   endfacet
   facet normal -0.000000e+00 0.000000e+00 1.000000e+00
      outer loop
         vertex -4.924039e-01 -8.682409e-02 4.000000e+01
         vertex -4.698463e-01 -1.710101e-01 4.000000e+01
         vertex 0.000000e+00 0.000000e+00 4.000000e+01
      endloop
   endfacet
   facet normal 0.000000e+00 0.000000e+00 1.000000e+00
      outer loop
         vertex 0.000000e+00 0.000000e+00 4.000000e+01
         vertex -4.698463e-01 -1.710101e-01 4.000000e+01
         vertex -4.330127e-01 -2.500000e-01 4.000000e+01
      endloop
   endfacet
   facet normal 0.000000e+00 0.000000e+00 1.000000e+00
      outer loop
         vertex 0.000000e+00 0.000000e+00 4.000000e+01
         vertex -4.330127e-01 -2.500000e-01 4.000000e+01
         vertex -3.830222e-01 -3.213938e-01 4.000000e+01
      endloop
   endfacet
   facet normal 0.000000e+00 0.000000e+00 1.000000e+00
      outer loop
         vertex -4.698463e-01 1.710101e-01 4.000000e+01
         vertex -4.924039e-01 8.682409e-02 4.000000e+01
         vertex 0.000000e+00 0.000000e+00 4.000000e+01
      endloop
   endfacet
   facet normal 0.000000e+00 0.000000e+00 1.000000e+00
      outer loop
         vertex 0.000000e+00 0.000000e+00 4.000000e+01
         vertex -4.924039e-01 8.682409e-02 4.000000e+01
         vertex -5.000000e-01 0.000000e+00 4.000000e+01
      endloop
   endfacet
   facet normal 0.000000e+00 0.000000e+00 1.000000e+00
      outer loop
         vertex 0.000000e+00 0.000000e+00 4.000000e+01
         vertex -5.000000e-01 0.000000e+00 4.000000e+01
         vertex -4.924039e-01 -8.682409e-02 4.000000e+01
      endloop
   endfacet
   facet normal 0.000000e+00 0.000000e+00 1.000000e+00
      outer loop
         vertex -3.213938e-01 3.830222e-01 4.000000e+01
         vertex -3.830222e-01 3.213938e-01 4.000000e+01
         vertex 0.000000e+00 0.000000e+00 4.000000e+01
      endloop
   endfacet
   facet normal 0.000000e+00 0.000000e+00 1.000000e+00
      outer loop
         vertex 0.000000e+00 0.000000e+00 4.000000e+01
         vertex -3.830222e-01 3.213938e-01 4.000000e+01
         vertex -4.330127e-01 2.500000e-01 4.000000e+01
      endloop
   endfacet
   facet normal 0.000000e+00 0.000000e+00 1.000000e+00
      outer loop
         vertex 0.000000e+00 0.000000e+00 4.000000e+01
         vertex -4.330127e-01 2.500000e-01 4.000000e+01
         vertex -4.698463e-01 1.710101e-01 4.000000e+01
      endloop
   endfacet
   facet normal 0.000000e+00 0.000000e+00 1.000000e+00
      outer loop
         vertex -8.682409e-02 4.924039e-01 4.000000e+01
         vertex -1.710101e-01 4.698463e-01 4.000000e+01
         vertex 0.000000e+00 0.000000e+00 4.000000e+01
      endloop
   endfacet
   facet normal 0.000000e+00 0.000000e+00 1.000000e+00
      outer loop
         vertex 0.000000e+00 0.000000e+00 4.000000e+01
         vertex -1.710101e-01 4.698463e-01 4.000000e+01
         vertex -2.500000e-01 4.330127e-01 4.000000e+01
      endloop
   endfacet
   facet normal 0.000000e+00 0.000000e+00 1.000000e+00
      outer loop
         vertex 0.000000e+00 0.000000e+00 4.000000e+01
         vertex -2.500000e-01 4.330127e-01 4.000000e+01
         vertex -3.213938e-01 3.830222e-01 4.000000e+01
      endloop
   endfacet
   facet normal 0.000000e+00 0.000000e+00 1.000000e+00
      outer loop
         vertex 1.710101e-01 4.698463e-01 4.000000e+01
         vertex 8.682409e-02 4.924039e-01 4.000000e+01
         vertex 0.000000e+00 0.000000e+00 4.000000e+01
      endloop
   endfacet
   facet normal 0.000000e+00 -0.000000e+00 1.000000e+00
      outer loop
         vertex 0.000000e+00 0.000000e+00 4.000000e+01
         vertex 8.682409e-02 4.924039e-01 4.000000e+01
         vertex -3.061617e-17 5.000000e-01 4.000000e+01
      endloop
   endfacet
   facet normal 0.000000e+00 0.000000e+00 1.000000e+00
      outer loop
         vertex 0.000000e+00 0.000000e+00 4.000000e+01
         vertex -3.061617e-17 5.000000e-01 4.000000e+01
         vertex -8.682409e-02 4.924039e-01 4.000000e+01
      endloop
   endfacet
   facet normal 0.000000e+00 0.000000e+00 1.000000e+00
      outer loop
         vertex 3.830222e-01 3.213938e-01 4.000000e+01
         vertex 3.213938e-01 3.830222e-01 4.000000e+01
         vertex 0.000000e+00 0.000000e+00 4.000000e+01
      endloop
   endfacet
   facet normal 0.000000e+00 0.000000e+00 1.000000e+00
      outer loop
         vertex 0.000000e+00 0.000000e+00 4.000000e+01
         vertex 3.213938e-01 3.830222e-01 4.000000e+01
         vertex 2.500000e-01 4.330127e-01 4.000000e+01
      endloop
   endfacet
   facet normal 0.000000e+00 0.000000e+00 1.000000e+00
      outer loop
         vertex 0.000000e+00 0.000000e+00 4.000000e+01
         vertex 2.500000e-01 4.330127e-01 4.000000e+01
         vertex 1.710101e-01 4.698463e-01 4.000000e+01
      endloop
   endfacet
   facet normal 0.000000e+00 0.000000e+00 1.000000e+00
      outer loop
         vertex 4.924039e-01 8.682409e-02 4.000000e+01
         vertex 4.698463e-01 1.710101e-01 4.000000e+01
         vertex 0.000000e+00 0.000000e+00 4.000000e+01
      endloop
   endfacet
   facet normal 0.000000e+00 0.000000e+00 1.000000e+00
      outer loop
         vertex 0.000000e+00 0.000000e+00 4.000000e+01
         vertex 4.698463e-01 1.710101e-01 4.000000e+01
         vertex 4.330127e-01 2.500000e-01 4.000000e+01
      endloop
   endfacet
   facet normal 0.000000e+00 0.000000e+00 1.000000e+00
      outer loop
         vertex 0.000000e+00 0.000000e+00 4.000000e+01
         vertex 4.330127e-01 2.500000e-01 4.000000e+01
         vertex 3.830222e-01 3.213938e-01 4.000000e+01
      endloop
   endfacet
   facet normal 0.000000e+00 -0.000000e+00 -1.000000e+00
      outer loop
         vertex 4.698463e-01 1.710101e-01 0.000000e+00
         vertex 4.924039e-01 8.682409e-02 0.000000e+00
         vertex 0.000000e+00 0.000000e+00 0.000000e+00
      endloop
   endfacet
   facet normal 0.000000e+00 0.000000e+00 -1.000000e+00
      outer loop
         vertex 0.000000e+00 0.000000e+00 0.000000e+00
         vertex 4.924039e-01 8.682409e-02 0.000000e+00
         vertex 5.000000e-01 1.836970e-16 0.000000e+00
      endloop
   endfacet
   facet normal 0.000000e+00 0.000000e+00 -1.000000e+00
      outer loop
         vertex 0.000000e+00 0.000000e+00 0.000000e+00
         vertex 5.000000e-01 1.836970e-16 0.000000e+00
         vertex 4.924039e-01 -8.682409e-02 0.000000e+00
      endloop
   endfacet
   facet normal 0.000000e+00 -0.000000e+00 -1.000000e+00
      outer loop
         vertex 3.213938e-01 3.830222e-01 0.000000e+00
         vertex 3.830222e-01 3.213938e-01 0.000000e+00
         vertex 0.000000e+00 0.000000e+00 0.000000e+00
      endloop
   endfacet
   facet normal 0.000000e+00 0.000000e+00 -1.000000e+00
      outer loop
         vertex 0.000000e+00 0.000000e+00 0.000000e+00
         vertex 3.830222e-01 3.213938e-01 0.000000e+00
         vertex 4.330127e-01 2.500000e-01 0.000000e+00
      endloop
   endfacet
   facet normal 0.000000e+00 0.000000e+00 -1.000000e+00
      outer loop
         vertex 0.000000e+00 0.000000e+00 0.000000e+00
         vertex 4.330127e-01 2.500000e-01 0.000000e+00
         vertex 4.698463e-01 1.710101e-01 0.000000e+00
      endloop
   endfacet
   facet normal 0.000000e+00 -0.000000e+00 -1.000000e+00
      outer loop
         vertex 8.682409e-02 4.924039e-01 0.000000e+00
         vertex 1.710101e-01 4.698463e-01 0.000000e+00
         vertex 0.000000e+00 0.000000e+00 0.000000e+00
      endloop
   endfacet
   facet normal 0.000000e+00 0.000000e+00 -1.000000e+00
      outer loop
         vertex 0.000000e+00 0.000000e+00 0.000000e+00
         vertex 1.710101e-01 4.698463e-01 0.000000e+00
         vertex 2.500000e-01 4.330127e-01 0.000000e+00
      endloop
   endfacet
   facet normal 0.000000e+00 0.000000e+00 -1.000000e+00
      outer loop
         vertex 0.000000e+00 0.000000e+00 0.000000e+00
         vertex 2.500000e-01 4.330127e-01 0.000000e+00
         vertex 3.213938e-01 3.830222e-01 0.000000e+00
      endloop
   endfacet
   facet normal 0.000000e+00 0.000000e+00 -1.000000e+00
      outer loop
         vertex -1.710101e-01 4.698463e-01 0.000000e+00
         vertex -8.682409e-02 4.924039e-01 0.000000e+00
         vertex 0.000000e+00 0.000000e+00 0.000000e+00
      endloop
   endfacet
   facet normal 0.000000e+00 0.000000e+00 -1.000000e+00
      outer loop
         vertex 0.000000e+00 0.000000e+00 0.000000e+00
         vertex -8.682409e-02 4.924039e-01 0.000000e+00
         vertex -3.061617e-17 5.000000e-01 0.000000e+00
      endloop
   endfacet
   facet normal 0.000000e+00 0.000000e+00 -1.000000e+00
      outer loop
         vertex 0.000000e+00 0.000000e+00 0.000000e+00
         vertex -3.061617e-17 5.000000e-01 0.000000e+00
         vertex 8.682409e-02 4.924039e-01 0.000000e+00
      endloop
   endfacet
   facet normal 0.000000e+00 0.000000e+00 -1.000000e+00
      outer loop
         vertex -3.830222e-01 3.213938e-01 0.000000e+00
         vertex -3.213938e-01 3.830222e-01 0.000000e+00
         vertex 0.000000e+00 0.000000e+00 0.000000e+00
      endloop
   endfacet
   facet normal 0.000000e+00 0.000000e+00 -1.000000e+00
      outer loop
         vertex 0.000000e+00 0.000000e+00 0.000000e+00
         vertex -3.213938e-01 3.830222e-01 0.000000e+00
         vertex -2.500000e-01 4.330127e-01 0.000000e+00
      endloop
   endfacet
   facet normal 0.000000e+00 0.000000e+00 -1.000000e+00
      outer loop
         vertex 0.000000e+00 0.000000e+00 0.000000e+00
         vertex -2.500000e-01 4.330127e-01 0.000000e+00
         vertex -1.710101e-01 4.698463e-01 0.000000e+00
      endloop
   endfacet
   facet normal 0.000000e+00 0.000000e+00 -1.000000e+00
      outer loop
         vertex -4.924039e-01 8.682409e-02 0.000000e+00
         vertex -4.698463e-01 1.710101e-01 0.000000e+00
         vertex 0.000000e+00 0.000000e+00 0.000000e+00
      endloop
   endfacet
   facet normal 0.000000e+00 0.000000e+00 -1.000000e+00
      outer loop
         vertex 0.000000e+00 0.000000e+00 0.000000e+00
         vertex -4.698463e-01 1.710101e-01 0.000000e+00
         vertex -4.330127e-01 2.500000e-01 0.000000e+00
      endloop
   endfacet
   facet normal 0.000000e+00 0.000000e+00 -1.000000e+00
      outer loop
         vertex 0.000000e+00 0.000000e+00 0.000000e+00
         vertex -4.330127e-01 2.500000e-01 0.000000e+00
         vertex -3.830222e-01 3.213938e-01 0.000000e+00
      endloop
   endfacet
   facet normal 0.000000e+00 0.000000e+00 -1.000000e+00
      outer loop
         vertex -4.698463e-01 -1.710101e-01 0.000000e+00
         vertex -4.924039e-01 -8.682409e-02 0.000000e+00
         vertex 0.000000e+00 0.000000e+00 0.000000e+00
      endloop
   endfacet
   facet normal -0.000000e+00 0.000000e+00 -1.000000e+00
      outer loop
         vertex 0.000000e+00 0.000000e+00 0.000000e+00
         vertex -4.924039e-01 -8.682409e-02 0.000000e+00
         vertex -5.000000e-01 0.000000e+00 0.000000e+00
      endloop
   endfacet
   facet normal 0.000000e+00 0.000000e+00 -1.000000e+00
      outer loop
         vertex 0.000000e+00 0.000000e+00 0.000000e+00
         vertex -5.000000e-01 0.000000e+00 0.000000e+00
         vertex -4.924039e-01 8.682409e-02 0.000000e+00
      endloop
   endfacet
   facet normal 0.000000e+00 0.000000e+00 -1.000000e+00
      outer loop
         vertex -3.213938e-01 -3.830222e-01 0.000000e+00
         vertex -3.830222e-01 -3.213938e-01 0.000000e+00
         vertex 0.000000e+00 0.000000e+00 0.000000e+00
      endloop
   endfacet
   facet normal 0.000000e+00 0.000000e+00 -1.000000e+00
      outer loop
         vertex 0.000000e+00 0.000000e+00 0.000000e+00
         vertex -3.830222e-01 -3.213938e-01 0.000000e+00
         vertex -4.330127e-01 -2.500000e-01 0.000000e+00
      endloop
   endfacet
   facet normal 0.000000e+00 0.000000e+00 -1.000000e+00
      outer loop
         vertex 0.000000e+00 0.000000e+00 0.000000e+00
         vertex -4.330127e-01 -2.500000e-01 0.000000e+00
         vertex -4.698463e-01 -1.710101e-01 0.000000e+00
      endloop
   endfacet
   facet normal 0.000000e+00 0.000000e+00 -1.000000e+00
      outer loop
         vertex -8.682409e-02 -4.924039e-01 0.000000e+00
         vertex -1.710101e-01 -4.698463e-01 0.000000e+00
         vertex 0.000000e+00 0.000000e+00 0.000000e+00
      endloop
   endfacet
   facet normal 0.000000e+00 0.000000e+00 -1.000000e+00
      outer loop
         vertex 0.000000e+00 0.000000e+00 0.000000e+00
         vertex -1.710101e-01 -4.698463e-01 0.000000e+00
         vertex -2.500000e-01 -4.330127e-01 0.000000e+00
      endloop
   endfacet
   facet normal 0.000000e+00 0.000000e+00 -1.000000e+00
      outer loop
         vertex 0.000000e+00 0.000000e+00 0.000000e+00
         vertex -2.500000e-01 -4.330127e-01 0.000000e+00
         vertex -3.213938e-01 -3.830222e-01 0.000000e+00
      endloop
   endfacet
   facet normal -0.000000e+00 0.000000e+00 -1.000000e+00
      outer loop
         vertex 1.710101e-01 -4.698463e-01 0.000000e+00
         vertex 8.682409e-02 -4.924039e-01 0.000000e+00
         vertex 0.000000e+00 0.000000e+00 0.000000e+00
      endloop
   endfacet
   facet normal 0.000000e+00 0.000000e+00 -1.000000e+00
      outer loop
         vertex 0.000000e+00 0.000000e+00 0.000000e+00
         vertex 8.682409e-02 -4.924039e-01 0.000000e+00
         vertex 9.184851e-17 -5.000000e-01 0.000000e+00
      endloop
   endfacet
   facet normal 0.000000e+00 -0.000000e+00 -1.000000e+00
      outer loop
         vertex 0.000000e+00 0.000000e+00 0.000000e+00
         vertex 9.184851e-17 -5.000000e-01 0.000000e+00
         vertex -8.682409e-02 -4.924039e-01 0.000000e+00
      endloop
   endfacet
   facet normal -0.000000e+00 0.000000e+00 -1.000000e+00
      outer loop
         vertex 3.830222e-01 -3.213938e-01 0.000000e+00
         vertex 3.213938e-01 -3.830222e-01 0.000000e+00
         vertex 0.000000e+00 0.000000e+00 0.000000e+00
      endloop
   endfacet
   facet normal 0.000000e+00 0.000000e+00 -1.000000e+00
      outer loop
         vertex 0.000000e+00 0.000000e+00 0.000000e+00
         vertex 3.213938e-01 -3.830222e-01 0.000000e+00
         vertex 2.500000e-01 -4.330127e-01 0.000000e+00
      endloop
   endfacet
   facet normal 0.000000e+00 0.000000e+00 -1.000000e+00
      outer loop
         vertex 0.000000e+00 0.000000e+00 0.000000e+00
         vertex 2.500000e-01 -4.330127e-01 0.000000e+00
         vertex 1.710101e-01 -4.698463e-01 0.000000e+00
      endloop
   endfacet
   facet normal -0.000000e+00 0.000000e+00 -1.000000e+00
      outer loop
         vertex 4.924039e-01 -8.682409e-02 0.000000e+00
         vertex 4.698463e-01 -1.710101e-01 0.000000e+00
         vertex 0.000000e+00 0.000000e+00 0.000000e+00
      endloop
   endfacet
   facet normal 0.000000e+00 0.000000e+00 -1.000000e+00
      outer loop
         vertex 0.000000e+00 0.000000e+00 0.000000e+00
         vertex 4.698463e-01 -1.710101e-01 0.000000e+00
         vertex 4.330127e-01 -2.500000e-01 0.000000e+00
      endloop
   endfacet
   facet normal 0.000000e+00 0.000000e+00 -1.000000e+00
      outer loop
         vertex 0.000000e+00 0.000000e+00 0.000000e+00
         vertex 4.330127e-01 -2.500000e-01 0.000000e+00
         vertex 3.830222e-01 -3.213938e-01 0.000000e+00
      endloop
   endfacet
endsolid